#!OML:ASF F:\VICON\USERDATA\INSTALL\rory3\rory3.ASF
:FULLY-SPECIFIED
:DEGREES
832
root -1.47178 17.4483 -8.19411 -2.70432 -45.5056 1.42032
lowerback 6.24628 -0.0671597 -2.00197
upperback -4.52522 -0.288831 0.243399
thorax -8.26491 -0.0254546 1.4206
lowerneck -23.4452 -7.26938 -13.2832
upperneck -6.76446 -6.64712 11.6799
head 2.39593 -2.70161 5.21239
rclavicle 4.61305e-014 1.74931e-014
rhumerus 94.8656 -25.0225 -41.3726
rradius 31.3068
rwrist 3.56668
rhand -33.8313 -3.0175
rfingers 7.12502
rthumb -7.01669 -32.8812
lclavicle 4.61305e-014 1.74931e-014
lhumerus 101.095 28.7243 47.9022
lradius 24.6877
lwrist -14.3764
lhand -31.8018 27.4188
lfingers 7.12502
lthumb -5.0574 57.3385
rfemur -7.25628 -1.87347 12.1176
rtibia 43.0594
rfoot -20.0345 1.50453
rtoes -2.57663
lfemur -3.45126 0.801459 -14.4866
ltibia 35.8974
lfoot -17.0773 -7.47344
ltoes -8.72904
833
root -1.48674 17.322 -8.23731 -2.85532 -45.0647 1.30031
lowerback 6.52181 -0.173889 -1.8756
upperback -4.39945 -0.41546 0.327428
thorax -8.28501 -0.0915813 1.45656
lowerneck -23.269 -7.14198 -13.3307
upperneck -6.74942 -6.49103 11.7424
head 2.36486 -2.62559 5.25918
rclavicle 4.38569e-014 8.74653e-015
rhumerus 94.9476 -25.0552 -41.272
rradius 31.2761
rwrist 3.49585
rhand -34.883 -3.60228
rfingers 7.12502
rthumb -8.03185 -33.4297
lclavicle 4.38569e-014 8.74653e-015
lhumerus 100.75 29.0465 47.4728
lradius 24.9646
lwrist -14.9247
lhand -30.8949 27.7013
lfingers 7.12502
lthumb -4.18161 57.64
rfemur -7.04474 -2.82805 12.2171
rtibia 43.6405
rfoot -21.7498 2.48036
rtoes -2.18789
lfemur -3.09698 0.799295 -14.4147
ltibia 35.8228
lfoot -19.4546 -5.23495
ltoes -10.2988
834
root -1.50371 17.1942 -8.27898 -2.98083 -44.7158 1.13075
lowerback 6.91357 -0.233727 -1.9126
upperback -4.43814 -0.485779 0.604839
thorax -8.55205 -0.110592 1.78466
lowerneck -22.8309 -7.03095 -13.7426
upperneck -6.63456 -6.30142 11.9016
head 2.33981 -2.52794 5.40074
rclavicle -1.18028e-014 1.35174e-014
rhumerus 94.8013 -24.8706 -40.7601
rradius 31.4235
rwrist 2.90229
rhand -36.0499 -4.3203
rfingers 7.12502
rthumb -9.15792 -34.1015
lclavicle -1.18028e-014 1.35174e-014
lhumerus 99.7683 29.4434 46.567
lradius 25.3397
lwrist -14.4631
lhand -30.5685 27.8073
lfingers 7.12502
lthumb -3.86644 57.752
rfemur -6.94033 -3.91756 12.3536
rtibia 44.2245
rfoot -23.4951 3.13982
rtoes -1.97867
lfemur -2.68049 1.07521 -14.3193
ltibia 35.7802
lfoot -21.9493 -3.69388
ltoes -13.2073
835
root -1.51937 17.0788 -8.31856 -3.16701 -44.2804 0.938698
lowerback 7.42045 -0.344343 -1.87203
upperback -4.45085 -0.619934 0.836035
thorax -8.85615 -0.165667 2.03314
lowerneck -22.4292 -6.90229 -13.9217
upperneck -6.5809 -6.13637 11.8146
head 2.28226 -2.45603 5.42286
rclavicle -5.68027e-014 -1.78906e-014
rhumerus 94.6296 -24.7765 -40.3128
rradius 31.6452
rwrist 2.1716
rhand -36.9172 -4.22675
rfingers 7.12502
rthumb -9.99478 -33.9694
lclavicle -5.68027e-014 -1.78906e-014
lhumerus 98.5976 30.007 45.0526
lradius 25.6181
lwrist -13.2982
lhand -30.7986 27.9902
lfingers 7.12502
lthumb -4.08867 57.9307
rfemur -6.7442 -5.13447 12.5361
rtibia 44.7636
rfoot -25.1967 3.23549
rtoes -3.62565
lfemur -2.28729 1.24347 -14.1713
ltibia 35.7827
lfoot -24.1845 -3.33201
ltoes -14.9332
836
root -1.53473 16.9854 -8.34711 -3.14614 -43.9265 0.687118
lowerback 7.5846 -0.44879 -1.60502
upperback -4.3658 -0.722844 0.936351
thorax -8.85611 -0.228528 2.0061
lowerneck -22.1659 -6.73285 -13.8931
upperneck -6.72823 -5.94751 11.772
head 2.1767 -2.3722 5.42925
rclavicle 2.3556e-014 7.35503e-015
rhumerus 94.6817 -24.7498 -40.4576
rradius 31.8362
rwrist 2.06573
rhand -37.093 -4.58788
rfingers 7.12502
rthumb -10.1643 -34.3223
lclavicle 2.3556e-014 7.35503e-015
lhumerus 97.9045 30.3566 44.0848
lradius 25.9781
lwrist -12.7095
lhand -30.604 28.2488
lfingers 7.12502
lthumb -3.9007 58.1928
rfemur -6.62274 -6.19771 12.7799
rtibia 45.134
rfoot -26.8083 3.32509
rtoes -4.44977
lfemur -2.23975 1.06119 -14.03
ltibia 35.9788
lfoot -25.666 -2.24705
ltoes -15.1241
837
root -1.54804 16.9174 -8.37646 -3.21768 -43.5859 0.660057
lowerback 7.74857 -0.521236 -1.52222
upperback -4.29855 -0.806553 0.999147
thorax -8.87549 -0.271864 2.04064
lowerneck -22.186 -6.54269 -14.066
upperneck -6.65169 -5.66045 11.9445
head 2.18189 -2.21998 5.54176
rclavicle 8.28435e-014 4.37326e-015
rhumerus 94.7323 -24.7008 -40.6161
rradius 32.0867
rwrist 1.79582
rhand -37.6411 -4.21085
rfingers 7.12502
rthumb -10.6931 -33.9187
lclavicle 8.28435e-014 4.37326e-015
lhumerus 97.2053 30.7445 43.0386
lradius 26.3408
lwrist -12.147
lhand -30.234 28.2495
lfingers 7.12502
lthumb -3.54346 58.1998
rfemur -6.5291 -7.11502 12.8939
rtibia 45.3608
rfoot -28.3844 3.09263
rtoes -4.09684
lfemur -2.42225 0.545322 -14.0919
ltibia 36.4677
lfoot -26.3115 -0.290715
ltoes -16.6048
838
root -1.56041 16.8715 -8.40877 -3.25747 -43.2179 0.713513
lowerback 7.91864 -0.565882 -1.56123
upperback -4.31797 -0.864914 1.09953
thorax -8.9924 -0.292517 2.18185
lowerneck -22.0338 -6.66317 -14.7331
upperneck -6.6733 -5.68601 12.4061
head 2.19778 -2.20661 5.79882
rclavicle 2.72335e-014 1.55052e-014
rhumerus 94.5711 -24.6754 -40.4764
rradius 32.4994
rwrist 1.29032
rhand -37.5068 -4.24327
rfingers 7.12502
rthumb -10.5635 -33.9578
lclavicle 2.72335e-014 1.55052e-014
lhumerus 96.1483 31.2251 41.508
lradius 26.7498
lwrist -11.3781
lhand -30.0554 28.2068
lfingers 7.12502
lthumb -3.37098 58.1599
rfemur -6.51313 -7.87527 12.9888
rtibia 45.5364
rfoot -29.5522 2.65706
rtoes -5.20182
lfemur -2.83785 -0.0346704 -14.1372
ltibia 37.3057
lfoot -26.8643 0.413546
ltoes -17.9048
839
root -1.58337 16.8515 -8.44313 -3.62658 -42.9008 1.28623
lowerback 8.01854 -0.557903 -2.09617
upperback -4.31886 -0.921245 1.06952
thorax -9.04384 -0.287413 2.46214
lowerneck -21.5919 -6.57629 -14.2052
upperneck -7.3163 -5.7167 11.7535
head 1.89818 -2.26752 5.51179
rclavicle -8.75149e-014 -2.18663e-014
rhumerus 94.4861 -24.6578 -40.583
rradius 32.7796
rwrist 1.38796
rhand -37.6895 -3.79027
rfingers 7.12502
rthumb -10.7398 -33.4957
lclavicle -8.75149e-014 -2.18663e-014
lhumerus 95.1208 31.6396 39.9432
lradius 27.1357
lwrist -10.6914
lhand -30.4088 27.917
lfingers 7.12502
lthumb -3.71219 57.8644
rfemur -6.58273 -8.11084 12.7097
rtibia 45.8668
rfoot -30.1984 2.38467
rtoes -6.58487
lfemur -3.55964 -0.470016 -14.485
ltibia 38.3885
lfoot -27.0854 -0.427173
ltoes -16.9653
840
root -1.60882 16.8364 -8.48485 -4.101 -42.6194 2.00482
lowerback 8.13331 -0.520983 -2.80892
upperback -4.3171 -0.964326 1.00941
thorax -9.10037 -0.265663 2.80912
lowerneck -21.9931 -6.64163 -14.7675
upperneck -6.94268 -5.64246 12.4223
head 2.10624 -2.18465 5.81817
rclavicle -3.43401e-014 4.37326e-015
rhumerus 94.1813 -24.7803 -40.4531
rradius 33.1831
rwrist 1.1959
rhand -37.8826 -3.15797
rfingers 7.12502
rthumb -10.926 -32.8537
lclavicle -3.43401e-014 4.37326e-015
lhumerus 94.4993 31.9217 38.7573
lradius 27.2562
lwrist -10.3659
lhand -30.6416 27.1056
lfingers 7.12502
lthumb -3.93707 57.0489
rfemur -6.76505 -7.98879 12.2928
rtibia 46.4082
rfoot -30.4973 2.66341
rtoes -6.04528
lfemur -4.58085 -0.612073 -14.8312
ltibia 39.6922
lfoot -26.6004 -1.31047
ltoes -16.0233
841
root -1.6352 16.8134 -8.53739 -4.66148 -42.3408 2.81889
lowerback 8.34351 -0.546159 -3.75157
upperback -4.38634 -1.11702 1.05911
thorax -9.27821 -0.274546 3.42472
lowerneck -21.8944 -6.59225 -14.8379
upperneck -7.12504 -5.56335 12.2311
head 2.01743 -2.15382 5.77904
rclavicle 4.2689e-014 2.3059e-014
rhumerus 93.8248 -24.725 -39.9915
rradius 33.7049
rwrist 0.597141
rhand -37.8731 -3.18296
rfingers 7.12502
rthumb -10.9169 -32.8792
lclavicle 4.2689e-014 2.3059e-014
lhumerus 93.2969 31.912 38.0599
lradius 27.8633
lwrist -10.717
lhand -30.9236 26.5473
lfingers 7.12502
lthumb -4.20935 56.4855
rfemur -7.12252 -7.72818 11.8401
rtibia 47.1419
rfoot -30.7151 2.76386
rtoes -5.71536
lfemur -5.51189 -0.668571 -15.1778
ltibia 41.0468
lfoot -25.9831 -1.66243
ltoes -15.855
842
root -1.65815 16.789 -8.58329 -4.90081 -42.0822 3.20444
lowerback 8.44508 -0.673633 -4.22562
upperback -4.47423 -1.34021 1.21375
thorax -9.4058 -0.3424 3.89886
lowerneck -22.5495 -6.65302 -15.7966
upperneck -6.35697 -5.36667 12.9184
head 2.37044 -1.99527 6.16578
rclavicle 3.07122e-014 -5.96354e-015
rhumerus 93.6598 -24.4432 -39.6367
rradius 34.1328
rwrist 0.166487
rhand -38.2645 -2.45224
rfingers 7.12502
rthumb -11.2944 -32.1281
lclavicle 3.07122e-014 -5.96354e-015
lhumerus 91.5874 32.2202 36.6212
lradius 28.5352
lwrist -10.5877
lhand -31.384 25.8551
lfingers 7.12502
lthumb -4.65395 55.784
rfemur -7.55685 -7.62952 11.7419
rtibia 47.8655
rfoot -31.0416 2.34991
rtoes -7.15594
lfemur -6.31913 -0.550333 -15.1702
ltibia 42.3686
lfoot -25.819 -2.04161
ltoes -17.5703
843
root -1.67944 16.776 -8.61388 -4.82205 -41.9083 3.28245
lowerback 8.27122 -0.607096 -4.20506
upperback -4.5604 -1.25361 1.09357
thorax -9.40891 -0.305144 3.74131
lowerneck -22.0147 -6.64355 -15.232
upperneck -7.05582 -5.52312 12.326
head 2.06194 -2.11855 5.87614
rclavicle 5.78463e-014 1.03368e-014
rhumerus 92.9498 -24.5764 -39.336
rradius 34.476
rwrist 0.062958
rhand -37.9181 -3.0107
rfingers 7.12502
rthumb -10.9603 -32.7046
lclavicle 5.78463e-014 1.03368e-014
lhumerus 90.7757 32.228 34.8538
lradius 28.8333
lwrist -9.8867
lhand -32.2862 25.4273
lfingers 7.12502
lthumb -5.52504 55.3353
rfemur -8.02762 -7.70435 11.8781
rtibia 48.3924
rfoot -31.2089 1.78743
rtoes -8.67191
lfemur -7.1835 -0.518803 -14.9522
ltibia 43.5236
lfoot -25.6891 -3.17115
ltoes -19.2629
844
root -1.69561 16.7734 -8.63002 -4.63338 -41.8669 3.08389
lowerback 8.06901 -0.292878 -3.79893
upperback -4.56119 -0.799942 0.785681
thorax -9.33867 -0.12451 3.10543
lowerneck -21.9235 -6.7647 -14.5409
upperneck -7.07218 -5.84633 12.1306
head 2.06154 -2.29782 5.66802
rclavicle 4.09993e-014 -2.82274e-014
rhumerus 91.5926 -25.3869 -38.6597
rradius 34.7851
rwrist 0.138454
rhand -37.9068 -3.12173
rfingers 7.12502
rthumb -10.9494 -32.8162
lclavicle 4.09993e-014 -2.82274e-014
lhumerus 90.7236 31.6124 34.3369
lradius 29.4
lwrist -10.0528
lhand -32.6232 25.4028
lfingers 7.12502
lthumb -5.85048 55.302
rfemur -8.20424 -7.73553 12.1873
rtibia 48.5491
rfoot -31.2661 1.57555
rtoes -8.14948
lfemur -7.89462 -0.68752 -14.5099
ltibia 44.46
lfoot -24.9014 -4.96427
ltoes -17.1366
845
root -1.70981 16.7842 -8.64399 -4.51174 -41.8577 2.8672
lowerback 8.00416 -0.0794056 -3.41612
upperback -4.54703 -0.475542 0.651612
thorax -9.31202 0.00288895 2.69363
lowerneck -21.4738 -6.87648 -14.1789
upperneck -7.57584 -6.10802 11.8782
head 1.85766 -2.45367 5.5134
rclavicle 1.12065e-013 1.66979e-014
rhumerus 90.523 -25.9783 -37.8705
rradius 34.9808
rwrist 0.259101
rhand -38.1796 -3.0416
rfingers 7.12502
rthumb -11.2125 -32.722
lclavicle 1.12065e-013 1.66979e-014
lhumerus 90.702 31.2777 33.8522
lradius 29.5352
lwrist -10.494
lhand -32.3802 25.593
lfingers 7.12502
lthumb -5.61583 55.4986
rfemur -8.08658 -7.57392 12.5515
rtibia 48.3536
rfoot -31.3453 1.23513
rtoes -7.60216
lfemur -8.31344 -1.10047 -14.0991
ltibia 45.0886
lfoot -24.0282 -6.21447
ltoes -13.0691
